<?xml version="1.0" standalone="no"?>
<!DOCTYPE svg PUBLIC "-//W3C//DTD SVG 20010904//EN"
 "http://www.w3.org/TR/2001/REC-SVG-20010904/DTD/svg10.dtd">
<svg version="1.0" xmlns="http://www.w3.org/2000/svg"
 width="179.000000pt" height="179.000000pt" viewBox="0 0 179.000000 179.000000"
 preserveAspectRatio="xMidYMid meet">
<metadata>
Created by potrace 1.11, written by Peter Selinger 2001-2013
</metadata>
<g transform="translate(0.000000,179.000000) scale(0.100000,-0.100000)"
fill="#000000" stroke="none">
<path d="M785 1641 c-51 -23 -111 -89 -124 -138 -6 -21 -11 -58 -11 -83 l0
-45 -16 30 c-81 155 -306 157 -386 2 -41 -80 -33 -121 82 -417 l104 -265 5
-216 c6 -214 6 -216 33 -257 15 -22 49 -54 75 -69 l48 -28 340 0 340 0 48 28
c72 43 91 79 142 287 72 286 74 492 8 571 -28 33 -81 63 -132 74 -20 4 -46 22
-65 43 -37 42 -97 71 -148 72 l-38 0 0 118 c0 149 -10 185 -69 243 -68 69
-155 87 -236 50z"/>
</g>
</svg>
